<?xml version="1.0" encoding="UTF-8" standalone="no"?>
<svg
   xmlns:dc="http://purl.org/dc/elements/1.1/"
   xmlns:cc="http://creativecommons.org/ns#"
   xmlns:rdf="http://www.w3.org/1999/02/22-rdf-syntax-ns#"
   xmlns:svg="http://www.w3.org/2000/svg"
   xmlns="http://www.w3.org/2000/svg"
   xmlns:sodipodi="http://sodipodi.sourceforge.net/DTD/sodipodi-0.dtd"
   xmlns:inkscape="http://www.inkscape.org/namespaces/inkscape"
   width="94mm"
   height="134mm"
   viewBox="0 0 94 134"
   version="1.1"
   id="svg8"
   inkscape:version="1.0.1 (3bc2e813f5, 2020-09-07, custom)"
   sodipodi:docname="robot2.svg">
  <defs
     id="defs2" />
  <sodipodi:namedview
     id="base"
     pagecolor="#ffffff"
     bordercolor="#666666"
     borderopacity="1.0"
     inkscape:pageopacity="0.0"
     inkscape:pageshadow="2"
     inkscape:zoom="1.979899"
     inkscape:cx="14.371386"
     inkscape:cy="266.91754"
     inkscape:document-units="mm"
     inkscape:current-layer="g89"
     inkscape:document-rotation="0"
     showgrid="false"
     inkscape:snap-center="true"
     inkscape:snap-object-midpoints="true"
     inkscape:snap-text-baseline="true"
     inkscape:snap-midpoints="true"
     inkscape:snap-smooth-nodes="false"
     inkscape:snap-intersection-paths="true"
     inkscape:object-paths="true"
     inkscape:snap-page="true"
     inkscape:window-width="1854"
     inkscape:window-height="1035"
     inkscape:window-x="30"
     inkscape:window-y="29"
     inkscape:window-maximized="0" />
  <metadata
     id="metadata5">
    <rdf:RDF>
      <cc:Work
         rdf:about="">
        <dc:format>image/svg+xml</dc:format>
        <dc:type
           rdf:resource="http://purl.org/dc/dcmitype/StillImage" />
        <dc:title></dc:title>
      </cc:Work>
    </rdf:RDF>
  </metadata>
  <g
     inkscape:label="Layer 1"
     inkscape:groupmode="layer"
     id="layer1">
    <g
       id="g89"
       transform="matrix(1.1324167,0,0,1.1324167,33.358665,99.134817)">
      <path
         d="m 38.019058,-17.046807 a 7.759,7.759 0 0 0 7.75,-7.749999 v -0.385 h 6.143 a 1.751,1.751 0 0 0 1.75,-1.75 v -23.54 a 1.751,1.751 0 0 0 -1.75,-1.75 h -6.143 v -0.383 a 7.759,7.759 0 0 0 -7.75,-7.747 h -21.167 v -6.871 a 10.75,10.75 0 1 0 -9.4999998,0 v 6.871 H -13.814942 a 7.759,7.759 0 0 0 -7.75,7.75 v 0.383 h -6.143 a 1.751,1.751 0 0 0 -1.75,1.75 v 23.537 a 1.751,1.751 0 0 0 1.75,1.75 h 6.143 v 0.385 a 7.759,7.759 0 0 0 7.75,7.749999 h 12.1670004 v 5.316 H -21.705942 a 7.759,7.759 0 0 0 -7.75,7.7500002 V 29.148194 a 1.751,1.751 0 0 0 1.75,1.75 h 79.616 a 1.751,1.751 0 0 0 1.75,-1.75 V -3.9808068 a 7.759,7.759 0 0 0 -7.75,-7.7500002 h -20.058 v -5.316 z m 12.143,-31.674999 v 20.04 h -4.393 v -20.04 z m -45.3099998,-28.13 a 7.25,7.25 0 1 1 7.2499998,7.25 7.258,7.258 0 0 1 -7.2499998,-7.25 z m 5.9999998,10.671 a 9.929,9.929 0 0 0 2.5,0 v 5.829 h -2.5 z m -36.81,37.499 v -20.04 h 4.393 v 20.04 z m 7.893,3.885 v -27.808 a 4.255,4.255 0 0 1 4.25,-4.25 h 22.8880004 0.029 c 0,0 0.019,0 0.029,0 h 5.9419996 0.029 c 0,0 0.019,0 0.029,0 h 22.888 a 4.255,4.255 0 0 1 4.25,4.25 v 27.808 a 4.255,4.255 0 0 1 -4.25,4.249999 h -13.869 c -0.016,0 -0.031,-0.005 -0.048,-0.005 -0.017,0 -0.032,0 -0.048,0.005 H 0.15405821 c -0.016,0 -0.031,-0.005 -0.048,-0.005 -0.017,0 -0.032,0 -0.048,0.005 H -13.814942 a 4.255,4.255 0 0 1 -4.25,-4.249999 z m 50.916,52.195 H -8.6489418 v -14.437 H 32.851058 Z m 17.309,-31.3790008 V 27.398194 h -13.809 v -16.187 a 1.75,1.75 0 0 0 -1.75,-1.7499999 h -45 a 1.751,1.751 0 0 0 -1.75,1.7499999 v 16.187 h -13.807 V -3.9808068 a 4.255,4.255 0 0 1 4.25,-4.25 h 67.616 a 4.255,4.255 0 0 1 4.25,4.25 z m -27.808,-7.7500002 H 1.8520582 v -5.316 H 22.352058 Z"
         fill="#1068eb"
         data-original="#000000"
         class=""
         id="path77" />
      <path
         d="m 3.3530582,-42.703806 a 7.75,7.75 0 1 0 -7.7509999,7.752 7.759,7.759 0 0 0 7.7509999,-7.752 z m -7.7509999,4.252 a 4.25,4.25 0 1 1 4.24999991,-4.25 4.255,4.255 0 0 1 -4.24999991,4.25 z"
         fill="#1068eb"
         data-original="#000000"
         class=""
         id="path79" />
      <path
         d="m 28.602058,-34.951806 a 7.75,7.75 0 1 0 -7.75,-7.75 7.759,7.759 0 0 0 7.75,7.75 z m 0,-12 a 4.25,4.25 0 1 1 -4.25,4.25 4.255,4.255 0 0 1 4.25,-4.25 z"
         fill="#1068eb"
         data-original="#000000"
         class=""
         id="path81" />
      <path
         d="m -2.2961296,-28.066012 c 0.0059,2.658758 3.05691781,2.338654 4.0231878,2.339206 H 22.477058 c 3.125216,0 3.975152,0.08345 3.947667,-2.142196 -0.03365,-2.724723 -2.408878,-3.28927 -3.398279,-1.290142 l -21.1572108,0.04045 c -1.31792099,-2.151814 -4.1407488,-1.157196 -4.1653648,1.052679 z"
         fill="#1068eb"
         data-original="#000000"
         class=""
         id="path83"
         sodipodi:nodetypes="ccsscccc" />
      <path
         d="m 42.910058,3.7691941 a 4.75,4.75 0 1 0 -4.75,-4.7500005 4.756,4.756 0 0 0 4.75,4.7500005 z m 0,-6.0000005 a 1.25,1.25 0 1 1 -1.25,1.25 1.251,1.251 0 0 1 1.25,-1.25 z"
         fill="#1068eb"
         data-original="#000000"
         class=""
         id="path85" />
      <path
         d="m -23.455942,-0.9808064 a 4.75,4.75 0 1 0 4.75,-4.7500004 4.756,4.756 0 0 0 -4.75,4.7500004 z m 4.75,-1.25 a 1.25,1.25 0 1 1 -1.25,1.25 1.25,1.25 0 0 1 1.25,-1.25 z"
         fill="#1068eb"
         data-original="#000000"
         class=""
         id="path87" />
      <ellipse
         style="fill:#1068eb;stroke-width:0.273644;fill-opacity:1"
         id="path177"
         cx="-0.10949697"
         cy="-28.066011"
         rx="2.1866326"
         ry="2.2247329" />
      <ellipse
         style="fill:#1068eb;fill-opacity:1;stroke-width:0.280245"
         id="path177-3"
         cx="24.815941"
         cy="28.109573"
         rx="2.1866326"
         ry="2.3333492"
         transform="scale(1,-1)" />
    </g>
  </g>
</svg>
